<?xml version="1.0" encoding="utf-8"?>
<!-- Generator: Adobe Illustrator 24.0.0, SVG Export Plug-In . SVG Version: 6.00 Build 0)  -->
<svg version="1.1" id="Layer_1" xmlns="http://www.w3.org/2000/svg" xmlns:xlink="http://www.w3.org/1999/xlink" x="0px" y="0px"
	 viewBox="0 0 595.28 841.89" style="enable-background:new 0 0 595.28 841.89;" xml:space="preserve">
<style type="text/css">
	.st0{fill:#F15A5C;}
	.st1{fill:#FBB040;}
	.st2{fill:#00AEEF;}
	.st3{fill:#9474B4;}
	.st4{fill:#EE2A7B;}
	.st5{fill:#662D91;}
	.st6{fill:#8CC6EC;}
	.st7{fill:#231F20;}
	.st8{fill:#ED1C24;}
	.st9{fill:#0976A7;}
	.st10{fill:#919191;}
	.st11{fill:#A8A7A8;}
	.st12{opacity:0.3;}
	.st13{fill:url(#SVGID_1_);}
	.st14{fill:url(#SVGID_2_);}
	.st15{fill:url(#SVGID_3_);}
	.st16{fill:url(#SVGID_4_);}
	.st17{fill:url(#SVGID_5_);}
	.st18{fill:url(#SVGID_6_);}
	.st19{fill:url(#SVGID_7_);}
	.st20{fill:url(#SVGID_8_);}
	.st21{fill:url(#SVGID_9_);}
	.st22{fill:url(#SVGID_10_);}
	.st23{fill:url(#SVGID_11_);}
	.st24{fill:url(#SVGID_12_);}
	.st25{fill:url(#SVGID_13_);}
	.st26{fill:url(#SVGID_14_);}
	.st27{fill:url(#SVGID_15_);}
	.st28{fill:url(#SVGID_16_);}
	.st29{fill:url(#SVGID_17_);}
	.st30{fill:url(#SVGID_18_);}
	.st31{fill:url(#SVGID_19_);}
	.st32{fill:url(#SVGID_20_);}
	.st33{fill:url(#SVGID_21_);}
	.st34{fill:url(#SVGID_22_);}
	.st35{fill:url(#SVGID_23_);}
	.st36{fill:url(#SVGID_24_);}
	.st37{fill:url(#SVGID_25_);}
	.st38{fill:url(#SVGID_26_);}
	.st39{fill:url(#SVGID_27_);}
	.st40{fill:url(#SVGID_28_);}
	.st41{fill-rule:evenodd;clip-rule:evenodd;fill:#F0533E;}
	.st42{fill-rule:evenodd;clip-rule:evenodd;fill:#2E2423;}
	.st43{fill-rule:evenodd;clip-rule:evenodd;fill:#191817;}
	.st44{fill-rule:evenodd;clip-rule:evenodd;fill:#4D4342;}
	.st45{fill-rule:evenodd;clip-rule:evenodd;fill:#54413F;}
	.st46{fill-rule:evenodd;clip-rule:evenodd;fill:#4B3C3A;}
	.st47{fill-rule:evenodd;clip-rule:evenodd;fill:#FDFAF9;}
	.st48{fill-rule:evenodd;clip-rule:evenodd;fill:#131312;}
	.st49{fill-rule:evenodd;clip-rule:evenodd;fill:#F8F3F4;}
	.st50{fill-rule:evenodd;clip-rule:evenodd;fill:#FBF6F6;}
	.st51{fill-rule:evenodd;clip-rule:evenodd;fill:#FAF5F5;}
	.st52{fill-rule:evenodd;clip-rule:evenodd;fill:#FAF5F4;}
	.st53{fill-rule:evenodd;clip-rule:evenodd;fill:#2B1E1D;}
	.st54{fill-rule:evenodd;clip-rule:evenodd;fill:#272426;}
	.st55{fill-rule:evenodd;clip-rule:evenodd;fill:#2B2828;}
	.st56{fill-rule:evenodd;clip-rule:evenodd;fill:#0C0C0C;}
	.st57{fill-rule:evenodd;clip-rule:evenodd;fill:#171717;}
	.st58{fill-rule:evenodd;clip-rule:evenodd;fill:#130F0F;}
	.st59{fill-rule:evenodd;clip-rule:evenodd;fill:#564D4C;}
	.st60{fill-rule:evenodd;clip-rule:evenodd;fill:#434040;}
	.st61{fill-rule:evenodd;clip-rule:evenodd;fill:#3F2F2E;}
	.st62{fill-rule:evenodd;clip-rule:evenodd;fill:#424040;}
	.st63{fill-rule:evenodd;clip-rule:evenodd;fill:#574D4C;}
	.st64{fill-rule:evenodd;clip-rule:evenodd;fill:#2E1C1A;}
	.st65{fill-rule:evenodd;clip-rule:evenodd;fill:#5A4F4E;}
	.st66{fill-rule:evenodd;clip-rule:evenodd;fill:#282221;}
	.st67{fill-rule:evenodd;clip-rule:evenodd;fill:#594E4D;}
	.st68{fill-rule:evenodd;clip-rule:evenodd;fill:#141211;}
	.st69{fill-rule:evenodd;clip-rule:evenodd;fill:#252222;}
	.st70{fill-rule:evenodd;clip-rule:evenodd;fill:#452924;}
	.st71{fill-rule:evenodd;clip-rule:evenodd;fill:#1C1A1C;}
	.st72{fill-rule:evenodd;clip-rule:evenodd;fill:#686666;}
	.st73{fill-rule:evenodd;clip-rule:evenodd;fill:#111110;}
	.st74{fill-rule:evenodd;clip-rule:evenodd;fill:#392E2B;}
	.st75{fill-rule:evenodd;clip-rule:evenodd;fill:#795C59;}
	.st76{fill-rule:evenodd;clip-rule:evenodd;fill:#381B16;}
	.st77{fill-rule:evenodd;clip-rule:evenodd;fill:#666566;}
	.st78{fill-rule:evenodd;clip-rule:evenodd;fill:#5B5A59;}
	.st79{fill-rule:evenodd;clip-rule:evenodd;fill:#42211E;}
	.st80{fill-rule:evenodd;clip-rule:evenodd;fill:#7A7575;}
	.st81{fill-rule:evenodd;clip-rule:evenodd;fill:#1B1A1B;}
	.st82{fill-rule:evenodd;clip-rule:evenodd;fill:#2C2222;}
	.st83{fill-rule:evenodd;clip-rule:evenodd;fill:#855953;}
	.st84{fill-rule:evenodd;clip-rule:evenodd;fill:#3A3939;}
	.st85{fill-rule:evenodd;clip-rule:evenodd;fill:#3A3837;}
	.st86{fill-rule:evenodd;clip-rule:evenodd;fill:#825752;}
	.st87{fill-rule:evenodd;clip-rule:evenodd;fill:#3A3838;}
	.st88{fill-rule:evenodd;clip-rule:evenodd;fill:#493030;}
	.st89{fill-rule:evenodd;clip-rule:evenodd;fill:#3A393B;}
	.st90{fill-rule:evenodd;clip-rule:evenodd;fill:#221D1E;}
	.st91{fill-rule:evenodd;clip-rule:evenodd;fill:#3B3836;}
	.st92{fill-rule:evenodd;clip-rule:evenodd;fill:#3A3937;}
	.st93{fill-rule:evenodd;clip-rule:evenodd;fill:#111010;}
	.st94{fill-rule:evenodd;clip-rule:evenodd;fill:#8A7571;}
	.st95{fill-rule:evenodd;clip-rule:evenodd;fill:#949494;}
	.st96{fill-rule:evenodd;clip-rule:evenodd;fill:#3A3A39;}
	.st97{fill-rule:evenodd;clip-rule:evenodd;fill:#897472;}
	.st98{fill-rule:evenodd;clip-rule:evenodd;fill:#897572;}
	.st99{fill-rule:evenodd;clip-rule:evenodd;fill:#4C4A4E;}
	.st100{fill-rule:evenodd;clip-rule:evenodd;fill:#8A7573;}
	.st101{fill-rule:evenodd;clip-rule:evenodd;fill:#191513;}
	.st102{fill-rule:evenodd;clip-rule:evenodd;fill:#494848;}
	.st103{fill-rule:evenodd;clip-rule:evenodd;fill:#151213;}
	.st104{fill-rule:evenodd;clip-rule:evenodd;fill:#565554;}
	.st105{fill-rule:evenodd;clip-rule:evenodd;fill:#1B1413;}
	.st106{fill-rule:evenodd;clip-rule:evenodd;fill:#18181A;}
	.st107{fill-rule:evenodd;clip-rule:evenodd;fill:#D64628;}
	.st108{fill-rule:evenodd;clip-rule:evenodd;fill:#D4492A;}
	.st109{fill-rule:evenodd;clip-rule:evenodd;fill:#D24C2D;}
	.st110{fill-rule:evenodd;clip-rule:evenodd;fill:#D44A2B;}
	.st111{fill-rule:evenodd;clip-rule:evenodd;fill:#D94629;}
	.st112{fill-rule:evenodd;clip-rule:evenodd;fill:#CF4D30;}
	.st113{fill-rule:evenodd;clip-rule:evenodd;fill:#FAF1EE;}
	.st114{fill-rule:evenodd;clip-rule:evenodd;fill:#D34C2F;}
	.st115{fill-rule:evenodd;clip-rule:evenodd;fill:#D24B2C;}
	.st116{fill-rule:evenodd;clip-rule:evenodd;fill:#D45033;}
	.st117{fill-rule:evenodd;clip-rule:evenodd;fill:#D94729;}
	.st118{fill-rule:evenodd;clip-rule:evenodd;fill:#D54F31;}
	.st119{fill-rule:evenodd;clip-rule:evenodd;fill:#D3593F;}
	.st120{fill-rule:evenodd;clip-rule:evenodd;fill:#D14829;}
	.st121{fill-rule:evenodd;clip-rule:evenodd;fill:#CA543B;}
	.st122{fill-rule:evenodd;clip-rule:evenodd;fill:#F2D9D4;}
	.st123{fill-rule:evenodd;clip-rule:evenodd;fill:#BD432A;}
	.st124{fill-rule:evenodd;clip-rule:evenodd;fill:#D04D31;}
	.st125{fill-rule:evenodd;clip-rule:evenodd;fill:#DE6C56;}
	.st126{fill-rule:evenodd;clip-rule:evenodd;fill:#DF6851;}
	.st127{fill-rule:evenodd;clip-rule:evenodd;fill:#E5826D;}
	.st128{fill-rule:evenodd;clip-rule:evenodd;fill:#D47D6B;}
	.st129{fill-rule:evenodd;clip-rule:evenodd;fill:#A73723;}
	.st130{fill-rule:evenodd;clip-rule:evenodd;fill:#5C271B;}
	.st131{fill-rule:evenodd;clip-rule:evenodd;fill:#8E4739;}
	.st132{fill-rule:evenodd;clip-rule:evenodd;fill:#AB3924;}
	.st133{fill-rule:evenodd;clip-rule:evenodd;fill:#623932;}
	.st134{fill-rule:evenodd;clip-rule:evenodd;fill:#70392E;}
	.st135{fill-rule:evenodd;clip-rule:evenodd;fill:#7B3E32;}
	.st136{fill-rule:evenodd;clip-rule:evenodd;fill:#60362E;}
	.st137{fill-rule:evenodd;clip-rule:evenodd;fill:#68372D;}
	.st138{fill-rule:evenodd;clip-rule:evenodd;fill:#6F392D;}
	.st139{fill-rule:evenodd;clip-rule:evenodd;fill:#6F4137;}
	.st140{fill-rule:evenodd;clip-rule:evenodd;fill:#5E3931;}
	.st141{fill-rule:evenodd;clip-rule:evenodd;fill:#51241A;}
	.st142{fill-rule:evenodd;clip-rule:evenodd;fill:#652211;}
	.st143{fill-rule:evenodd;clip-rule:evenodd;fill:#CD492D;}
	.st144{fill-rule:evenodd;clip-rule:evenodd;fill:#7A4035;}
	.st145{fill-rule:evenodd;clip-rule:evenodd;fill:#6C2B1E;}
	.st146{fill-rule:evenodd;clip-rule:evenodd;fill:#7A372A;}
	.st147{fill-rule:evenodd;clip-rule:evenodd;fill:#742515;}
	.st148{fill-rule:evenodd;clip-rule:evenodd;fill:#643227;}
	.st149{fill-rule:evenodd;clip-rule:evenodd;fill:#6E2414;}
	.st150{fill-rule:evenodd;clip-rule:evenodd;fill:#5E2C21;}
	.st151{fill-rule:evenodd;clip-rule:evenodd;fill:#561C11;}
	.st152{fill-rule:evenodd;clip-rule:evenodd;fill:#732517;}
	.st153{fill-rule:evenodd;clip-rule:evenodd;fill:#6E2514;}
	.st154{fill-rule:evenodd;clip-rule:evenodd;fill:#713022;}
	.st155{fill-rule:evenodd;clip-rule:evenodd;fill:#3D160E;}
	.st156{fill-rule:evenodd;clip-rule:evenodd;fill:#672619;}
	.st157{fill-rule:evenodd;clip-rule:evenodd;fill:#6B3228;}
	.st158{fill-rule:evenodd;clip-rule:evenodd;fill:#6C4238;}
	.st159{fill-rule:evenodd;clip-rule:evenodd;fill:#812A19;}
	.st160{fill-rule:evenodd;clip-rule:evenodd;fill:#4D2015;}
	.st161{fill-rule:evenodd;clip-rule:evenodd;fill:#3E2F2D;}
	.st162{fill-rule:evenodd;clip-rule:evenodd;fill:#822A1A;}
	.st163{fill-rule:evenodd;clip-rule:evenodd;fill:#3F160F;}
	.st164{fill-rule:evenodd;clip-rule:evenodd;fill:#423636;}
	.st165{fill-rule:evenodd;clip-rule:evenodd;fill:#531E14;}
	.st166{fill-rule:evenodd;clip-rule:evenodd;fill:#642112;}
	.st167{fill-rule:evenodd;clip-rule:evenodd;fill:#6B2D20;}
	.st168{fill-rule:evenodd;clip-rule:evenodd;fill:#662E23;}
	.st169{fill-rule:evenodd;clip-rule:evenodd;fill:#EDAA9D;}
	.st170{fill-rule:evenodd;clip-rule:evenodd;fill:#381511;}
	.st171{fill-rule:evenodd;clip-rule:evenodd;fill:#5E2418;}
	.st172{fill-rule:evenodd;clip-rule:evenodd;fill:#51251B;}
	.st173{fill-rule:evenodd;clip-rule:evenodd;fill:#632B20;}
	.st174{fill-rule:evenodd;clip-rule:evenodd;fill:#521C11;}
	.st175{fill-rule:evenodd;clip-rule:evenodd;fill:#A04D3E;}
	.st176{fill-rule:evenodd;clip-rule:evenodd;fill:#792917;}
	.st177{fill-rule:evenodd;clip-rule:evenodd;fill:#351611;}
	.st178{fill-rule:evenodd;clip-rule:evenodd;fill:#68362A;}
	.st179{fill-rule:evenodd;clip-rule:evenodd;fill:#6E2314;}
	.st180{fill-rule:evenodd;clip-rule:evenodd;fill:#903A28;}
	.st181{fill-rule:evenodd;clip-rule:evenodd;fill:#3A1610;}
	.st182{fill-rule:evenodd;clip-rule:evenodd;fill:#642A1F;}
	.st183{fill-rule:evenodd;clip-rule:evenodd;fill:#39170F;}
	.st184{fill-rule:evenodd;clip-rule:evenodd;fill:#EA9E91;}
	.st185{fill-rule:evenodd;clip-rule:evenodd;fill:#3E160F;}
	.st186{fill-rule:evenodd;clip-rule:evenodd;fill:#652A1D;}
	.st187{fill-rule:evenodd;clip-rule:evenodd;fill:#70473F;}
	.st188{fill-rule:evenodd;clip-rule:evenodd;fill:#7B483D;}
	.st189{fill-rule:evenodd;clip-rule:evenodd;fill:#3C170F;}
	.st190{fill-rule:evenodd;clip-rule:evenodd;fill:#441A12;}
	.st191{fill-rule:evenodd;clip-rule:evenodd;fill:#371512;}
	.st192{fill-rule:evenodd;clip-rule:evenodd;fill:#431A11;}
	.st193{fill-rule:evenodd;clip-rule:evenodd;fill:#351510;}
	.st194{fill-rule:evenodd;clip-rule:evenodd;fill:#683229;}
	.st195{fill-rule:evenodd;clip-rule:evenodd;fill:#371511;}
	.st196{fill-rule:evenodd;clip-rule:evenodd;fill:#381710;}
	.st197{fill-rule:evenodd;clip-rule:evenodd;fill:#4A2015;}
	.st198{fill-rule:evenodd;clip-rule:evenodd;fill:#554F4F;}
	.st199{fill-rule:evenodd;clip-rule:evenodd;fill:#FBF5F3;}
	.st200{fill-rule:evenodd;clip-rule:evenodd;fill:#4D1C13;}
	.st201{fill-rule:evenodd;clip-rule:evenodd;fill:#693328;}
	.st202{fill-rule:evenodd;clip-rule:evenodd;fill:#D7553B;}
	.st203{fill-rule:evenodd;clip-rule:evenodd;fill:#FDF2EE;}
	.st204{fill-rule:evenodd;clip-rule:evenodd;fill:#DD5A40;}
</style>
<g>
	<g>
		<g>
			<path class="st0" d="M252.96,457.67l-22.12,24.18l1.21-2.92v0c0.05,1.02-0.32,1.95-0.96,2.65l-0.25,0.27
				c-8.83,9.62-19.81,17.45-32.04,22.67c-12.24,5.2-25.66,7.81-39.15,7.59c-13.49-0.21-27.05-3.26-39.5-9.05
				c-3.1-1.46-6.06-3.21-9.11-4.83c-2.89-1.86-5.7-3.86-8.55-5.81l-3.96-3.33l-1.98-1.68l-0.99-0.84l-0.49-0.42l-0.25-0.21
				l-0.56-0.57c-2.18-2.28-4.34-4.39-6.54-6.8c-2.25-2.84-4.66-5.71-6.7-8.64c-1.83-2.96-3.88-5.83-5.5-8.93
				c-3.29-6.18-6.11-12.66-8.07-19.43c-4.02-13.51-5.2-27.93-3.38-42.1c1.78-14.17,6.68-28.05,14.27-40.39
				c2.02-3,4.07-5.98,6.19-8.93l3.52-4.14l1.77-2.07l0.89-1.03l0.45-0.52l0.97-0.95l3.37-3.25l1.68-1.63c0.61-0.56,1-1.04,1.85-1.69
				c3.03-2.39,6.16-5,9.26-7.09c12.11-8.26,26.06-13.94,40.62-16.54c14.56-2.61,29.74-2.19,44.29,1.37
				c14.53,3.61,28.43,10.32,40.26,19.73c2.81,2.41,5.85,4.99,8.44,7.34l6.79,6.44l13.59,12.88l54.39,51.48
				c18.12,17.17,36.52,34.05,54.89,50.97c9.61,8.85,10.22,23.82,1.36,33.42l-1.36,1.48l0,0v-34.91c4.91,4.1,10.1,7.68,15.74,10.32
				c5.71,2.5,11.64,4.24,17.69,5.28c6.1,0.84,12.24,0.81,18.27,0.16c6.02-0.88,11.85-2.5,17.42-4.74c5.54-2.35,10.59-5.6,15.43-9.19
				c1.12-1.02,2.25-2.03,3.4-3.01l0.87-0.74l0.22-0.18l0.05-0.05c0.23-0.23-1.79,1.89-0.9,0.95l0.14-0.15l0.56-0.6l2.25-2.39
				l2.25-2.39c0.35-0.38,0.82-0.85,1.06-1.15l0.5-0.73c0.67-0.96,1.39-1.88,2.15-2.79c3.33-4.83,6.33-10.3,8.46-16.04
				c2-5.81,3.28-11.93,3.76-18.2c0.29-6.27-0.19-12.62-1.5-18.88c-1.48-6.21-3.78-12.26-6.86-18.04c-1.77-2.73-3.33-5.66-5.47-8.23
				l-1.49-2.02l-0.37-0.51l-0.09-0.13c-0.72-0.69,0.94,0.87,0.74,0.68l-0.07-0.07l-0.29-0.3l-1.14-1.19l-4.56-4.75l-3.3-2.92
				c-0.56-0.49-0.97-1.02-1.65-1.51l-2.06-1.5c-1.4-0.95-2.67-2.18-4.19-2.97l-4.45-2.66c-6.14-3.16-12.75-5.78-19.79-7.34
				c-7.04-1.46-14.37-1.95-21.85-1.59c-7.43,0.58-14.89,2.22-22.24,4.77c-7.29,2.7-14.22,6.59-20.98,11.21l-5.17-12.48l0,0l2.09,0.3
				c3.71,0.53,6.29,3.97,5.76,7.69c-0.27,1.86-1.28,3.45-2.68,4.49c-4,2.96-7.92,6-11.97,8.91c-4.06,2.91-8.05,5.87-12.18,8.7
				c-1.24,0.85-2.94,0.54-3.79-0.7c-0.66-0.95-0.62-2.18,0-3.08c2.83-4.13,5.79-8.13,8.7-12.18c2.91-4.05,5.94-7.98,8.91-11.97
				l5.17,12.48l0,0c-3.74,0.54-7.21-2.06-7.74-5.8c-0.28-1.93,0.28-3.79,1.4-5.21l1.17-1.48c5.92-7.46,12.95-14.34,21.1-19.97
				c8.22-5.47,17.32-9.92,27.07-12.87c9.76-2.82,20.04-4.17,30.46-4.16c10.4,0.33,20.87,2.08,31.01,5.38l7.47,2.87
				c2.53,0.9,4.83,2.29,7.26,3.45c4.67,2.08,9.96,5.9,14.54,9.06l5.18,4.06l1.3,1.02l0.32,0.25l0.08,0.06l0.88,0.83l0.18,0.18
				l0.73,0.71l2.91,2.85c4.03,3.69,7.4,8.02,10.84,12.33c6.41,8.94,11.86,18.73,15.54,29.29c3.53,10.58,5.66,21.66,6.19,32.93
				c0.22,11.26-1.09,22.58-3.94,33.61c-3.04,11.03-7.79,21.41-13.94,31.29c-1.83,2.63-3.71,5.23-5.63,7.8l-1.45,1.92
				c-0.44,0.55-0.74,0.87-1.12,1.31l-2.15,2.48l-2.15,2.48l-0.54,0.61l-0.14,0.15l-1.05,1.1l-0.1,0.09l-0.39,0.37l-1.57,1.46
				l-6.35,5.79c-8.91,7.25-18.83,13.32-29.48,17.74c-10.72,4.22-21.97,6.96-33.38,7.98c-11.43,0.82-22.9-0.08-34.04-2.42
				c-11.13-2.49-21.75-6.84-31.61-12.36c-9.8-5.69-18.57-12.88-26.33-20.87l-0.95-0.97c-9.12-9.38-8.9-24.37,0.48-33.49
				c0.13-0.12,0.34-0.32,0.47-0.44l0,0v34.91c-16.92-18.36-33.81-36.77-50.97-54.89l-51.48-54.39l-12.88-13.59l-6.44-6.79l-5.4-5.26
				c-7.35-6.57-16.19-11.46-25.72-14.4c-9.52-2.99-19.76-4.03-29.86-2.91c-10.1,1.1-20.02,4.34-28.92,9.56
				c-2.16,1.25-3.89,2.58-5.93,3.81c-0.45,0.22-1.13,0.89-1.7,1.35l-1.79,1.51l-3.57,3.02l-5.02,5.12l-4.9,6.14
				c-6.09,8.55-10.33,18.46-12.48,28.92c-2.14,10.46-2.1,21.47,0.22,32.09c1.1,5.32,2.93,10.49,5.12,15.5
				c1.07,2.52,2.55,4.84,3.78,7.31c1.37,2.29,2.85,4.3,4.24,6.53c1.83,2.33,3.97,4.76,5.93,7.14l5.63,5.53l6.57,5.21
				c2.37,1.48,4.65,3.13,7.09,4.53c9.78,5.55,20.85,9.04,32.26,10.14c11.41,1.11,23.16-0.17,34.24-3.85
				c11.1-3.62,21.52-9.66,30.34-17.7l-1.21,2.92l0,0l0.02-0.37c0.05-1.01,0.5-1.92,1.19-2.56l24.18-22.12
				c1.09-1,2.79-0.92,3.79,0.17C253.91,455.08,253.89,456.65,252.96,457.67z"/>
		</g>
	</g>
</g>
</svg>
