<svg width="78" height="60" viewBox="0 0 78 110" fill="none" xmlns="http://www.w3.org/2000/svg">
<path d="M33.1455 59.7985L30.2471 62.9578L30.4057 62.5763C30.4122 62.7095 30.3638 62.831 30.2799 62.9225L30.2471 62.9578C29.0901 64.2147 27.6514 65.2378 26.0489 65.9198C24.4451 66.5992 22.6867 66.9403 20.9191 66.9115C19.1515 66.8841 17.3747 66.4856 15.7433 65.7291C15.3371 65.5383 14.9493 65.3096 14.5497 65.098C14.171 64.855 13.8028 64.5936 13.4293 64.3389L12.9105 63.9038L12.651 63.6843L12.5213 63.5745L12.4571 63.5196L12.4243 63.4922L12.351 63.4177C12.0653 63.1198 11.7823 62.8441 11.494 62.5292C11.1992 62.1582 10.8834 61.7832 10.6161 61.4003C10.3763 61.0136 10.1077 60.6386 9.89544 60.2336C9.46435 59.4261 9.09484 58.5794 8.83802 57.6949C8.31128 55.9297 8.15666 54.0456 8.39514 52.1941C8.62837 50.3427 9.27043 48.5292 10.2649 46.9168C10.5296 46.5249 10.7982 46.1355 11.076 45.7501L11.5373 45.2091L11.7692 44.9387L11.8858 44.8041L11.9448 44.7362L12.0719 44.612L12.5134 44.1874L12.7336 43.9744C12.8135 43.9012 12.8646 43.8385 12.976 43.7536C13.373 43.4413 13.7831 43.1003 14.1893 42.8272C15.7761 41.748 17.604 41.0058 19.5118 40.6661C21.4196 40.3251 23.4086 40.38 25.3151 40.8451C27.219 41.3168 29.0403 42.1935 30.5904 43.423C30.9586 43.7379 31.357 44.075 31.6963 44.3821L32.586 45.2235L34.3667 46.9064L41.4935 53.6327C43.8678 55.8761 46.2787 58.0816 48.6858 60.2924C49.945 61.4487 50.0249 63.4046 48.864 64.659L48.6858 64.8523V60.291C49.3291 60.8267 50.0092 61.2945 50.7482 61.6394C51.4964 61.9661 52.2734 62.1934 53.0661 62.3293C53.8654 62.4391 54.67 62.4352 55.4601 62.3502C56.2489 62.2352 57.0128 62.0236 57.7426 61.7309C58.4685 61.4239 59.1302 60.9992 59.7644 60.5302C59.9112 60.3969 60.0593 60.2649 60.2099 60.1369L60.3239 60.0402L60.3528 60.0167L60.3593 60.0101C60.3894 59.9801 60.1248 60.2571 60.2414 60.1343L60.2597 60.1147L60.3331 60.0363L60.6279 59.724L60.9227 59.4117C60.9686 59.3621 61.0302 59.3007 61.0616 59.2615L61.1272 59.1661C61.2149 59.0406 61.3093 58.9204 61.4089 58.8015C61.8452 58.1705 62.2383 57.4558 62.5174 56.7058C62.7794 55.9467 62.9472 55.147 63.0101 54.3278C63.0481 53.5086 62.9852 52.6789 62.8135 51.861C62.6196 51.0496 62.3182 50.2591 61.9146 49.5039C61.6827 49.1472 61.4783 48.7644 61.1979 48.4286L61.0027 48.1646L60.9542 48.098L60.9424 48.081C60.8481 47.9909 61.0656 48.1947 61.0394 48.1699L61.0302 48.1607L60.9922 48.1215L60.8428 47.966L60.2453 47.3454L59.8129 46.9639C59.7395 46.8999 59.6858 46.8306 59.5967 46.7666L59.3268 46.5706C59.1433 46.4465 58.9769 46.2858 58.7778 46.1825L58.1947 45.835C57.3902 45.4221 56.524 45.0798 55.6016 44.876C54.6791 44.6852 53.7187 44.6212 52.7386 44.6682C51.765 44.744 50.7875 44.9583 49.8244 45.2915C48.8692 45.6442 47.9612 46.1525 47.0754 46.7561L46.398 45.1255L46.6718 45.1647C47.158 45.234 47.496 45.6834 47.4266 46.1695C47.3912 46.4125 47.2589 46.6202 47.0754 46.7561C46.5513 47.1429 46.0377 47.5401 45.507 47.9203C44.975 48.3005 44.4522 48.6873 43.911 49.057C43.7485 49.1681 43.5258 49.1276 43.4144 48.9656C43.3279 48.8414 43.3332 48.6807 43.4144 48.5631C43.7852 48.0235 44.1731 47.5009 44.5544 46.9717C44.9357 46.4426 45.3327 45.9291 45.7219 45.4077L46.3993 47.0384C45.9092 47.1089 45.4546 46.7692 45.3851 46.2805C45.3484 46.0284 45.4218 45.7853 45.5686 45.5998L45.7219 45.4064C46.4976 44.4317 47.4187 43.5328 48.4866 42.7972C49.5637 42.0825 50.7561 41.501 52.0336 41.1156C53.3125 40.7471 54.6595 40.5708 56.0248 40.5721C57.3875 40.6152 58.7594 40.8438 60.0881 41.275L61.0669 41.65C61.3984 41.7676 61.6998 41.9492 62.0182 42.1008C62.6301 42.3725 63.3232 42.8717 63.9233 43.2845L64.6021 43.815L64.7724 43.9483L64.8144 43.9809L64.8248 43.9888L64.9401 44.0972L64.9637 44.1207L65.0594 44.2135L65.4407 44.5859C65.9687 45.068 66.4103 45.6338 66.8611 46.1969C67.701 47.365 68.4151 48.6441 68.8973 50.0239C69.3598 51.4063 69.6389 52.854 69.7084 54.3265C69.7372 55.7977 69.5655 57.2768 69.1921 58.7179C68.7938 60.1591 68.1714 61.5153 67.3655 62.8062C67.1257 63.1499 66.8794 63.4896 66.6278 63.8254L66.4378 64.0762C66.3802 64.1481 66.3409 64.1899 66.2911 64.2474L66.0094 64.5714L65.7276 64.8955L65.6569 64.9752L65.6385 64.9948L65.501 65.1385L65.4879 65.1502L65.4368 65.1986L65.231 65.3893L64.399 66.1459C63.2315 67.0931 61.9317 67.8862 60.5362 68.4637C59.1316 69.0151 57.6575 69.3731 56.1624 69.5064C54.6647 69.6135 53.1618 69.4959 51.7021 69.1902C50.2437 68.8649 48.8522 68.2965 47.5602 67.5753C46.2761 66.8318 45.127 65.8924 44.1102 64.8484L43.9857 64.7217C42.7907 63.4961 42.8195 61.5375 44.0486 60.3459C44.0656 60.3302 44.0932 60.3041 44.1102 60.2884V64.8497C41.8932 62.4508 39.68 60.0454 37.4316 57.6779L30.6861 50.5714L28.9984 48.7957L28.1546 47.9085L27.447 47.2213C26.4839 46.3629 25.3256 45.7239 24.0769 45.3398C22.8295 44.9491 21.4877 44.8132 20.1643 44.9596C18.8409 45.1033 17.5411 45.5266 16.3749 46.2087C16.0919 46.372 15.8652 46.5458 15.5979 46.7065C15.5389 46.7352 15.4498 46.8228 15.3751 46.8829L15.1406 47.0802L14.6728 47.4748L14.015 48.1437L13.373 48.946C12.575 50.0631 12.0195 51.3579 11.7377 52.7246C11.4573 54.0913 11.4626 55.5299 11.7666 56.9174C11.9107 57.6125 12.1505 58.2881 12.4374 58.9427C12.5776 59.2719 12.7716 59.575 12.9327 59.8978C13.1122 60.197 13.3062 60.4596 13.4883 60.751C13.7281 61.0554 14.0085 61.3729 14.2653 61.6839L15.003 62.4064L15.8639 63.0871C16.1744 63.2805 16.4732 63.4961 16.7929 63.679C18.0744 64.4042 19.5249 64.8602 21.02 65.0039C22.515 65.1489 24.0546 64.9817 25.5064 64.5009C26.9609 64.0279 28.3262 63.2387 29.4819 62.1882L29.3234 62.5697L29.326 62.5214C29.3325 62.3894 29.3915 62.2705 29.4819 62.1869L32.6502 59.2967C32.7931 59.1661 33.0158 59.1765 33.1468 59.3189C33.27 59.4601 33.2674 59.6652 33.1455 59.7985Z" fill="#F15A5C"/>
</svg>


