<svg width="88" height="62" viewBox="0 0 88 62" fill="none" xmlns="http://www.w3.org/2000/svg">
<path d="M3.46018 35.1828L2.6176 37.6828H0.319366L3.99107 26.8566H6.92638L10.7556 37.6828H8.29984L7.40932 35.1828H3.46018ZM6.90583 33.2659C6.13861 30.982 5.64882 29.5211 5.38851 28.5506H5.37481C5.10765 29.6171 4.56648 31.3146 3.95339 33.2659H6.90583Z" fill="#FBB040"/>
<path d="M12.0058 26.2221H14.2527V28.2283H12.0058V26.2221ZM12.0058 29.5554H14.2527V37.6828H12.0058V29.5554Z" fill="#FBB040"/>
<path d="M1.39142 48.7936H5.8646C8.16284 48.7936 9.72126 50.0865 9.72126 52.144C9.72126 54.4965 7.94363 55.5733 5.8098 55.5733H3.73076V59.6164H1.39142V48.7936ZM3.73076 53.7146H5.51524C6.59757 53.7146 7.36137 53.2963 7.36137 52.192C7.36137 51.0741 6.55647 50.6592 5.56319 50.6592H3.73076V53.7146Z" fill="#00AEEF"/>
<path d="M12.773 57.1782C12.9443 57.8263 13.4717 58.1898 14.3109 58.1898C15.1398 58.1898 15.4446 57.8915 15.4446 57.3976C15.4446 56.8764 15.0952 56.6706 13.9341 56.386C11.29 55.7345 10.855 54.9149 10.855 53.7661C10.855 52.5727 11.6975 51.3038 14.1465 51.3038C16.6091 51.3038 17.4414 52.6481 17.5133 53.7523H15.3761C15.3042 53.4506 15.1055 52.8847 14.0472 52.8847C13.3039 52.8847 13.0642 53.2139 13.0642 53.5809C13.0642 53.9855 13.3176 54.181 14.6328 54.4896C17.3421 55.1206 17.7257 56.0499 17.7257 57.2433C17.7257 58.5876 16.7016 59.8153 14.2287 59.8153C11.766 59.8153 10.7454 58.6253 10.5673 57.1816H12.773V57.1782Z" fill="#00AEEF"/>
<path d="M34.3751 24.144H38.8483C41.1465 24.144 42.7049 25.4368 42.7049 27.4944C42.7049 29.8469 40.9273 30.9237 38.7935 30.9237H36.7144V34.9668H34.3751V24.144ZM36.7144 29.0616H38.4989C39.5813 29.0616 40.345 28.6432 40.345 27.539C40.345 26.421 39.5401 26.0061 38.5469 26.0061H36.7144V29.0616V29.0616Z" fill="#9474B4"/>
<path d="M44.1161 29.0444C44.1161 28.2385 44.1126 27.5184 44.0989 26.8394H46.3047C46.3321 27.0211 46.3629 27.827 46.3629 28.266C46.7226 27.3366 47.5857 26.6576 48.9694 26.6508V28.7975C47.3391 28.7564 46.3629 29.1953 46.3629 31.4209V34.9633H44.1161V29.0444Z" fill="#9474B4"/>
<path d="M38.0468 50.3677V61.1939H35.7074V50.3677H38.0468Z" fill="#EE2A7B"/>
<path d="M47.6131 49.7332V58.9614C47.6131 59.7021 47.6131 60.4531 47.6302 61.1939H45.469C45.4245 60.9504 45.3799 60.5286 45.3662 60.3434C44.9758 60.9847 44.277 61.3825 43.0646 61.3825C41.0129 61.3825 39.7045 59.733 39.7045 57.1953C39.7045 54.6954 41.0917 52.8779 43.3899 52.8779C44.5579 52.8779 45.1847 53.2894 45.3662 53.6563V49.7332H47.6131ZM42.0131 57.137C42.0131 58.7214 42.6296 59.5787 43.729 59.5787C45.2737 59.5787 45.4519 58.2893 45.4519 57.1199C45.4519 55.731 45.2566 54.6783 43.7873 54.6783C42.609 54.6817 42.0131 55.6007 42.0131 57.137Z" fill="#EE2A7B"/>
<path d="M70.6537 34.2089L69.8111 36.7088H67.5129L71.1846 25.8826H74.1199L77.9492 36.7088H75.4934L74.6029 34.2089H70.6537ZM74.0994 32.2885C73.3321 30.0046 72.8424 28.5437 72.582 27.5733H72.5649C72.2978 28.6398 71.7566 30.3373 71.1435 32.2885H74.0994Z" fill="#662D91"/>
<path d="M80.8776 33.1253C80.881 34.1403 81.388 35.1348 82.508 35.1348C83.443 35.1348 83.7102 34.7576 83.9225 34.2672H86.1728C85.8851 35.2617 84.998 36.8975 82.4497 36.8975C79.7747 36.8975 78.6171 34.8948 78.6171 32.7618C78.6171 30.2138 79.9254 28.3929 82.5319 28.3929C85.32 28.3929 86.2687 30.4127 86.2687 32.4394C86.2687 32.7138 86.2687 32.8921 86.2379 33.1253H80.8776V33.1253ZM84.0116 31.7433C83.9945 30.7968 83.6177 30.0012 82.5217 30.0012C81.4462 30.0012 81.0112 30.7454 80.9221 31.7433H84.0116Z" fill="#662D91"/>
<path d="M72.5581 48.7936H74.8974V57.6995H80.2851L80.0179 59.6198H72.5615V48.7936H72.5581Z" fill="#8CC6EC"/>
<path d="M81.5935 53.6975C81.5935 52.8916 81.59 52.1714 81.5763 51.4925H83.7821C83.8129 51.6742 83.8403 52.4801 83.8403 52.919C84.2 51.9897 85.0631 51.3107 86.4468 51.3038V53.4506C84.8165 53.4094 83.8403 53.8484 83.8403 56.074V59.6164H81.5935V53.6975Z" fill="#8CC6EC"/>
<path d="M21.6474 20.509H17.6469L15.9035 16.7368H6.77225L5.00832 20.509H1.00781L9.90278 1.65826H12.7525L21.6474 20.509ZM14.4684 13.6985L11.3379 6.91192L8.15941 13.6985H14.4684Z" fill="#231F20"/>
<path d="M36.0979 20.509H32.6386V19.8025C32.2002 20.1626 31.7206 20.4267 31.2035 20.5913C30.6863 20.7559 30.1348 20.8382 29.556 20.8382C28.597 20.8382 27.7201 20.6461 26.9187 20.2621C26.1172 19.878 25.4287 19.3602 24.8465 18.7086C24.2676 18.057 23.8155 17.2992 23.4936 16.435C23.1716 15.5708 23.0106 14.6586 23.0106 13.7019C23.0106 12.6799 23.1956 11.7335 23.5655 10.8624C23.9354 9.99138 24.4252 9.23351 25.0349 8.58881C25.648 7.94411 26.3467 7.43658 27.131 7.06965C27.9154 6.69929 28.7237 6.51754 29.556 6.51754C30.1348 6.51754 30.7 6.59641 31.2514 6.75416C31.7994 6.91191 32.2721 7.13137 32.6625 7.41257V0.955261H36.0979V20.509ZM32.6865 16.8568V10.3069C32.529 10.1971 32.3474 10.0908 32.1419 9.98796C31.9364 9.88508 31.7241 9.79935 31.5049 9.73076C31.2857 9.66218 31.063 9.60388 30.8438 9.56615C30.6246 9.52843 30.426 9.50786 30.2547 9.50786C29.6861 9.50786 29.1724 9.60731 28.7066 9.80278C28.2408 9.99824 27.8366 10.2829 27.4907 10.6498C27.1447 11.0202 26.8776 11.4625 26.6858 11.9804C26.4974 12.4982 26.4015 13.0743 26.4015 13.7019C26.4015 14.3157 26.4974 14.8747 26.6858 15.3856C26.8741 15.8966 27.1344 16.3355 27.4667 16.7059C27.7955 17.0763 28.1962 17.3609 28.6586 17.5666C29.1244 17.7724 29.6313 17.8718 30.1828 17.8718C31.0802 17.8684 31.9159 17.5324 32.6865 16.8568Z" fill="#231F20"/>
<path d="M54.1516 13.6984C54.1516 14.7204 53.9632 15.6668 53.5865 16.5379C53.2097 17.4089 52.6925 18.1634 52.0315 18.8012C51.3738 19.4391 50.5998 19.9432 49.7127 20.3101C48.8256 20.6805 47.8803 20.8622 46.8767 20.8622C45.8731 20.8622 44.9312 20.677 44.051 20.3101C43.1707 19.9432 42.4035 19.4356 41.7459 18.7909C41.0883 18.1462 40.5677 17.3883 40.1909 16.5173C39.8142 15.6463 39.6258 14.7066 39.6258 13.7019C39.6258 12.7108 39.8176 11.7815 40.2012 10.9104C40.5848 10.0394 41.1088 9.2781 41.7664 8.62311C42.4241 7.97155 43.1947 7.46059 44.0715 7.09022C44.9518 6.71986 45.8834 6.53812 46.8733 6.53812C47.8768 6.53812 48.8222 6.72329 49.7093 7.09022C50.5964 7.46059 51.367 7.96127 52.028 8.59911C52.6857 9.23696 53.2063 9.99482 53.583 10.8727C53.9632 11.7506 54.1516 12.6937 54.1516 13.6984ZM50.7608 13.6984C50.7608 13.1189 50.658 12.5771 50.4559 12.073C50.2539 11.5723 49.9764 11.1299 49.6236 10.7527C49.2708 10.3755 48.8598 10.0806 48.3906 9.86794C47.9214 9.65533 47.4213 9.54902 46.8904 9.54902C46.3595 9.54902 45.856 9.65533 45.3868 9.86794C44.9175 10.0806 44.5065 10.3755 44.1537 10.7527C43.801 11.1299 43.5235 11.5689 43.3214 12.073C43.1194 12.5771 43.0166 13.1189 43.0166 13.6984C43.0166 14.278 43.1194 14.8198 43.3214 15.3239C43.5235 15.828 43.801 16.267 44.1537 16.6442C44.5065 17.0214 44.9175 17.3163 45.3868 17.5289C45.856 17.7416 46.3561 17.8479 46.8904 17.8479C47.4213 17.8479 47.9214 17.7416 48.3906 17.5289C48.8598 17.3163 49.2708 17.0214 49.6236 16.6442C49.9764 16.267 50.2539 15.828 50.4559 15.3239C50.658 14.8198 50.7608 14.278 50.7608 13.6984Z" fill="#231F20"/>
<path d="M70.5304 13.6984C70.5304 14.6552 70.3694 15.5674 70.0475 16.4316C69.7255 17.2957 69.2734 18.0536 68.6911 18.7052C68.1089 19.3567 67.417 19.8746 66.6155 20.2586C65.814 20.6427 64.9338 20.8347 63.9748 20.8347C63.3754 20.8347 62.8171 20.7524 62.2999 20.5878C61.7793 20.4232 61.2929 20.1592 60.8374 19.7991V20.5055H57.45V0.944977H60.8613L60.8853 7.54289C61.2758 7.2274 61.745 6.97706 62.2862 6.78845C62.8274 6.59984 63.3959 6.50725 63.9919 6.50725C64.8242 6.50725 65.6325 6.69243 66.4169 7.05936C67.2012 7.42972 67.8999 7.93725 68.513 8.57853C69.1261 9.22323 69.6159 9.9811 69.9824 10.8521C70.3489 11.73 70.5304 12.6765 70.5304 13.6984ZM67.095 13.6984C67.095 13.0709 66.9991 12.4982 66.8107 11.9769C66.6224 11.4591 66.3586 11.0133 66.0195 10.6464C65.6805 10.276 65.2797 9.99482 64.8139 9.79936C64.3481 9.60389 63.8343 9.50443 63.2658 9.50443C62.9027 9.50443 62.4848 9.57988 62.0122 9.72733C61.5395 9.87822 61.1456 10.0703 60.8305 10.3034V16.8534C61.5703 17.5289 62.4061 17.865 63.3343 17.865C63.8686 17.865 64.3686 17.7621 64.8345 17.5598C65.3003 17.3575 65.6976 17.0694 66.0264 16.699C66.3552 16.3287 66.6155 15.8897 66.8073 15.3788C67.0025 14.8712 67.095 14.3123 67.095 13.6984Z" fill="#231F20"/>
<path d="M87.8785 13.6744C87.8785 13.8939 87.8648 14.1237 87.8443 14.3569C87.8203 14.5935 87.7929 14.837 87.7621 15.0873H76.8874C77.0141 15.4817 77.1888 15.852 77.4183 16.2053C77.6443 16.5585 77.9252 16.8637 78.254 17.1243C78.5828 17.3849 78.9561 17.5873 79.3706 17.7381C79.785 17.889 80.244 17.961 80.7475 17.961C81.3606 17.961 81.9702 17.8547 82.5833 17.6421C83.1964 17.4295 83.7033 17.1449 84.1143 16.7814L86.255 18.9247C85.3131 19.6311 84.3918 20.1318 83.491 20.4233C82.5867 20.7147 81.6346 20.8588 80.631 20.8588C79.6103 20.8588 78.6582 20.6702 77.7711 20.2929C76.884 19.9157 76.1167 19.4048 75.466 18.7601C74.8152 18.1154 74.3014 17.3575 73.9247 16.4865C73.5479 15.6154 73.3595 14.6827 73.3595 13.695C73.3595 12.704 73.5479 11.7746 73.9247 10.9036C74.3014 10.0326 74.8186 9.27469 75.4797 8.62999C76.1373 7.98529 76.9079 7.47432 77.7847 7.0971C78.665 6.71988 79.6035 6.53127 80.6105 6.53127C81.5661 6.53127 82.484 6.70959 83.3642 7.06281C84.2445 7.41602 85.0186 7.90641 85.6933 8.53397C86.368 9.16153 86.9024 9.91254 87.2928 10.7836C87.6833 11.658 87.8785 12.6217 87.8785 13.6744ZM84.3233 12.3542C84.0561 11.49 83.5834 10.7939 82.8984 10.2692C82.2134 9.7445 81.4428 9.48044 80.5796 9.48044C79.7336 9.48044 78.9698 9.7445 78.2951 10.2692C77.6203 10.7973 77.1477 11.49 76.8839 12.3542H84.3233Z" fill="#231F20"/>
</svg>
