<svg width="50" height="50" viewBox="0 0 50 50" fill="none" xmlns="http://www.w3.org/2000/svg">
<path d="M6.64062 0C2.889 0 0 2.889 0 6.64062V43.3594C0 47.111 2.889 50 6.64062 50H43.3594C47.111 50 50 47.111 50 43.3594V6.64062C50 2.889 47.111 0 43.3594 0H6.64062ZM6.64062 4.16667H43.3594C44.8161 4.16667 45.8333 5.18392 45.8333 6.64062V16.6667H35.2865C32.6579 14.0788 29.0283 12.5 25 12.5C20.9717 12.5 17.3421 14.0788 14.7135 16.6667H4.16667V6.64062C4.16667 5.18392 5.18392 4.16667 6.64062 4.16667ZM36.0677 6.25C35.6527 6.25 35.4167 6.486 35.4167 6.90104V13.9323C35.4167 14.3473 35.6527 14.5833 36.0677 14.5833H43.099C43.514 14.5833 43.75 14.3473 43.75 13.9323V6.90104C43.75 6.486 43.514 6.25 43.099 6.25H36.0677ZM25 16.6667C30.835 16.6667 35.4167 21.2484 35.4167 27.0833C35.4167 32.9183 30.835 37.5 25 37.5C19.165 37.5 14.5833 32.9183 14.5833 27.0833C14.5833 21.2484 19.165 16.6667 25 16.6667ZM25 20.8333C24.3734 20.8333 23.7386 21.0286 23.112 21.0286C24.1536 21.4437 25 22.7051 25 23.9583C25 25.6266 23.5433 27.0833 21.875 27.0833C20.6217 27.0833 19.5719 26.237 18.9453 25.1953C18.9453 25.8219 18.75 26.4567 18.75 27.0833C18.75 30.6234 21.46 33.3333 25 33.3333C28.54 33.3333 31.25 30.6234 31.25 27.0833C31.25 23.5433 28.54 20.8333 25 20.8333Z" fill="#575757"/>
</svg>
