<svg width="109" height="47" viewBox="0 0 109 47" fill="none" xmlns="http://www.w3.org/2000/svg">
<path d="M28.6577 10.5981C30.1471 10.8538 31.3646 11.0368 31.6365 11.6004C31.9459 12.2396 30.3293 12.2745 29.5109 12.2948C25.6067 12.3674 23.2468 12.4401 23.1196 13.6458C22.975 15.1973 24.7911 16.7662 26.5871 18.9539C28.2384 20.9615 30.1095 22.9313 29.5658 24.7733C28.8949 27.0715 25.8062 27.545 22.8477 27.545C20.0136 27.545 17.3443 27.1267 16.2193 26.9233C14.8196 26.6676 15.022 26.0488 15.4009 25.8483C15.8173 25.6304 18.1974 25.6101 19.8487 25.5374C21.2109 25.4648 25.17 25.4648 25.786 24.5351C26.5495 23.4223 24.6957 21.4699 22.9894 19.4623C20.8638 16.9434 18.5416 14.3344 19.7764 12.4372C21.3757 9.99667 26.0434 10.1594 28.6577 10.5981ZM9.5012 14.6656C11.9536 14.5378 14.9497 14.9213 16.6213 16.0718C17.4571 16.6383 18.0383 17.6959 17.6913 18.919C16.7283 22.3503 13.1162 26.5078 5.08803 29.7008C2.54598 30.7235 0.530263 31.107 0.0935727 30.831C-0.360469 30.5405 0.964061 28.2772 1.36605 27.5102C2.65587 25.0668 4.25225 22.6931 5.81392 20.5228C6.39521 19.7209 7.2657 18.3322 8.08413 18.4426C8.81002 18.553 7.95689 20.0114 7.41319 20.9615C6.48776 22.5304 3.92545 26.9088 4.76124 27.1644C6.63235 27.7484 15.4037 21.7285 14.1139 18.3903C13.5153 16.8388 9.70075 16.6935 7.30329 16.6935C6.21302 16.6935 3.8358 16.9318 3.68831 16.1648C3.54371 15.4704 7.32064 14.776 9.5012 14.6656ZM16.1094 0.0167593C19.0708 -0.111076 22.5556 0.472902 23.2092 2.44274C24.2793 5.65316 18.8683 10.3424 14.1457 12.6406C12.9832 13.2071 12.292 13.3698 12.0028 13.3146C11.7309 13.2768 11.676 13.0037 11.7656 12.841C11.9305 12.4953 12.6911 11.8183 13.709 11.0717C19.0129 7.16686 20.7539 4.32251 19.7388 3.15455C19.1026 2.40788 16.3986 1.89653 13.6194 1.89653C12.8559 1.89653 10.8604 2.06214 10.658 1.40262C10.4989 0.856414 13.1682 0.144595 16.1094 0.0167593ZM71.2625 36.4325L67.1414 45.7733C66.9245 46.2672 66.5225 46.5403 66.0337 46.5403H66.0164H65.2732L64.0759 40.6656L61.207 45.811C61.0798 46.0289 60.9178 46.1945 60.753 46.3224C60.5534 46.4676 60.3163 46.5229 60.0618 46.5229H60.0069H59.1161V35.7585H59.8247C59.9345 35.7585 60.0416 35.7759 60.1514 35.8689C60.2613 35.9619 60.296 36.1071 60.296 36.2146L60.2585 45.1719L63.5466 39.4251H64.2378C64.6543 39.4076 65.0187 39.6982 65.0736 40.1543L66.1639 45.2271L70.3226 35.7585H70.8663C70.9762 35.7585 71.0832 35.7759 71.1757 35.8486C71.2654 35.9212 71.3203 36.0665 71.3203 36.1769C71.3174 36.3047 71.3001 36.3599 71.2625 36.4325ZM108.728 36.9265V36.9642V36.9265C108.691 36.9265 104.752 36.9439 104.752 36.9439C103.933 36.9439 103.444 37.4727 103.444 38.1293C103.444 38.5128 103.661 38.8759 104.026 39.242L106.877 42.0689C106.877 42.0689 107.895 42.926 107.895 44.0388C107.895 44.8407 107.658 46.5374 105.608 46.5577H101.232V45.7558H101.215H101.232C101.232 45.628 101.359 45.445 101.487 45.4275C101.524 45.4101 105.408 45.4101 105.428 45.4101C106.227 45.4101 106.736 44.8813 106.736 44.2247C106.736 43.8412 106.553 43.4228 106.209 43.0742L103.19 40.1165C102.881 39.8434 102.282 39.1665 102.282 38.3297C102.299 37.5279 102.499 35.8311 104.569 35.8108H109V36.6127C108.983 36.7231 108.855 36.9061 108.728 36.9265ZM80.0888 41.6854C79.3456 44.8232 77.2373 45.9912 75.239 45.8808L75.0394 45.8633C73.1133 45.6077 71.6992 44.1288 72.4424 41.0462C73.2232 37.9085 75.4559 36.7405 77.4195 36.8509C79.4005 37.0514 80.8147 38.6028 80.0888 41.6854ZM77.7116 35.7585C74.2615 35.4854 72.0809 37.8939 71.3203 40.9591C70.6291 43.7134 71.5575 46.5955 74.8254 46.979C78.3305 47.2521 80.5284 44.8261 81.2369 41.7784C81.8876 39.0241 80.9246 36.1391 77.7116 35.7585ZM100.865 36.1769C100.865 36.4325 100.72 36.5604 100.72 36.5604L95.1994 41.2671L99.3205 45.7733C99.3205 45.7733 99.4854 45.9737 99.4854 46.1568C99.4854 46.2672 99.4304 46.395 99.3408 46.4473C99.2511 46.5025 99.1586 46.5199 99.0516 46.5199H98.5252L94.167 41.7581L93.2965 46.5199H92.1166L94.1149 35.7556H94.6413C94.7685 35.7556 94.8784 35.7934 94.9854 35.866C95.0751 35.9386 95.185 36.0839 95.1503 36.3221L94.4244 40.5L99.9278 35.7556H100.454C100.544 35.7556 100.654 35.773 100.743 35.8457C100.827 35.959 100.882 36.0868 100.865 36.1769ZM88.0967 40.6656C87.4431 40.8487 86.5177 40.8661 85.572 40.8661C85.2279 40.8661 84.7536 40.8487 84.3371 40.8487L85.0457 36.9265C85.6096 36.9265 87.4258 36.8887 88.0418 36.9265C88.2789 36.9439 88.5132 36.9642 88.6404 36.9817C89.1494 37.0717 89.4762 37.1821 89.6931 37.3826C90.6041 38.3123 89.7683 40.2269 88.0967 40.6656ZM90.7487 36.7608C89.9129 35.8108 88.4958 35.7759 86.8618 35.7759H84.1029L82.1045 46.5403H83.2845L84.1202 41.9062L86.2632 41.9237L88.9325 46.5403H89.5311C89.641 46.5403 89.7307 46.5228 89.8203 46.4676C89.91 46.395 89.9649 46.2672 89.9476 46.1771C89.9476 46.0318 89.803 45.7936 89.803 45.7936L87.5328 41.8888C90.2397 41.6506 90.9482 39.7359 91.1102 38.9689C91.2577 38.3297 91.223 37.3071 90.7487 36.7608ZM14.0387 35.7382H19.5422V36.8887C19.4699 37.4 19.1778 37.9288 18.6717 37.9288H14.513C14.0966 37.9288 13.8594 38.0392 13.8218 38.2949C13.8045 38.4605 13.8768 38.568 14.166 38.7684L17.7983 41.36C18.5791 41.9062 18.9782 42.7836 18.7787 43.9865C18.5791 45.2823 17.5612 46.4851 15.5281 46.4851H10.8778V44.9888C10.9501 44.4949 11.1872 44.2944 11.621 44.2944H15.5975C16.306 44.2944 16.5229 44.1288 16.5779 43.7279C16.6155 43.4374 16.4506 43.2718 16.0863 43.0161L12.6535 40.6075C11.6904 39.9335 11.4359 38.9108 11.5632 38.0537C11.7512 36.8335 12.8241 35.7382 14.0387 35.7382ZM52.9938 35.7382H47.2358L47.1982 35.9038C47.071 36.633 47.1259 37.4727 48.2683 37.4727H52.5369C54.2258 37.4727 54.8794 38.6958 54.4629 41.0114C54.0812 43.1265 52.9388 44.7331 51.2297 44.7331H48.9045L50.0121 38.6755H48.0514C47.7795 38.6755 47.5973 38.8759 47.58 39.0415L46.2381 46.4676H50.7612C54.1014 46.4676 56.4266 44.8988 57.1351 40.9213C57.6615 37.891 56.389 35.7382 52.9938 35.7382ZM39.7919 45.4275L39.5923 46.5025H32.0558L34.0166 35.7382H36.0149C36.2318 35.7382 36.3591 35.9386 36.3244 36.1042L34.7627 44.7535H39.3031C39.7196 44.7506 39.8815 44.9336 39.7919 45.4275ZM45.2953 36.1042L43.4069 46.4851H41.0267L42.9875 35.7207H44.9859C45.2028 35.7382 45.33 35.9386 45.2953 36.1042ZM28.9498 41.3397C28.5507 43.8383 27.4055 45.0992 25.2278 45.0992C23.0675 45.0992 22.3416 43.8412 22.7407 41.3397C23.1398 38.8411 24.285 37.5802 26.4627 37.5802C28.6404 37.5831 29.3489 38.8585 28.9498 41.3397ZM26.7693 35.7382C22.9374 35.7382 20.8841 38.292 20.378 41.3571C19.8863 44.4223 21.1039 46.9587 24.9357 46.9587C28.7676 46.9587 30.8209 44.4048 31.327 41.3571C31.8187 38.292 30.6011 35.7382 26.7693 35.7382Z" fill="#ED1C24"/>
</svg>
