<svg width="50" height="50" viewBox="0 0 50 50" fill="none" xmlns="http://www.w3.org/2000/svg">
<path d="M25 0.78125C11.6406 0.78125 0.78125 11.6406 0.78125 25C0.78125 29.1016 1.79657 33.1252 3.78876 36.6798L1.7189 44.2581C1.36734 45.4691 1.71844 46.7189 2.61688 47.6173C3.51532 48.5158 4.76593 48.8675 5.97687 48.555L13.8672 46.4844C17.3047 48.2812 21.1327 49.2188 25.0389 49.2188C38.3983 49.2188 49.2577 38.3594 49.2577 25C49.2577 18.5156 46.7578 12.4606 42.1875 7.89032C37.5781 3.32001 31.4844 0.78125 25 0.78125ZM25 3.125C30.8594 3.125 36.367 5.39078 40.4686 9.5314C44.6092 13.672 46.9141 19.1797 46.875 25C46.875 37.0703 37.0703 46.875 25 46.875C21.3672 46.875 17.7341 45.9372 14.5309 44.2184C14.3747 44.1403 14.18 44.0628 13.9847 44.0628C13.8675 44.0628 13.7891 44.0627 13.6719 44.1017L5.35126 46.2891C4.76532 46.4453 4.37531 46.1325 4.21906 45.9763C4.06281 45.82 3.75 45.43 3.90625 44.8441L6.0936 36.7966C6.17172 36.4841 6.13312 36.172 5.97687 35.8986C4.10187 32.6173 3.125 28.8281 3.125 25C3.125 12.9297 12.9297 3.125 25 3.125ZM25 6.64062C14.8828 6.64062 6.64062 14.8438 6.64062 25C6.64062 28.2422 7.50031 31.4062 9.10187 34.1797C9.72687 35.2734 9.88281 36.5622 9.57031 37.7731L8.43735 41.8747L12.8128 40.7425C13.2034 40.6253 13.5941 40.5861 13.9847 40.5861C14.7659 40.5861 15.5469 40.7814 16.2109 41.172C18.9062 42.5783 21.9141 43.3594 25 43.3594C35.1172 43.3594 43.3594 35.1172 43.3594 25C43.3594 20.0781 41.445 15.4684 37.9684 11.9919C34.5309 8.55438 29.9219 6.64062 25 6.64062ZM16.8358 14.3356H17.9298C18.3595 14.3356 18.7888 14.3747 19.2184 15.3122C19.7263 16.445 20.8591 19.2967 20.9763 19.5702C21.1325 19.8436 21.2112 20.195 21.0159 20.5856C20.8206 20.9763 20.7425 21.2106 20.43 21.5622C20.1566 21.9138 19.8045 22.305 19.5702 22.5784C19.2967 22.8519 18.9844 23.1644 19.3359 23.7503C19.6875 24.3362 20.82 26.2109 22.5388 27.7344C24.7263 29.6875 26.6014 30.3128 27.1873 30.5862C27.7733 30.8597 28.0862 30.8205 28.4378 30.4298C28.7894 30.0392 29.8828 28.7498 30.2734 28.1639C30.6641 27.578 31.055 27.6955 31.5628 27.8908C32.1097 28.0861 34.922 29.4919 35.508 29.7653C36.0939 30.0388 36.4841 30.1955 36.6013 30.4298C36.7575 30.7423 36.758 31.8748 36.2892 33.242C35.8205 34.5702 33.4767 35.8983 32.383 35.9764C31.3283 36.0545 30.3513 36.4455 25.4684 34.5314C19.6091 32.2267 15.8984 26.2108 15.625 25.8202C15.3516 25.4295 13.2812 22.6956 13.2812 19.8441C13.2812 16.9925 14.7653 15.625 15.3122 15.0391C15.8591 14.4531 16.4452 14.3356 16.8358 14.3356Z" fill="#575757"/>
</svg>

